<?xml version="1.0" encoding="UTF-8" standalone="no"?>
<!DOCTYPE svg PUBLIC "-//W3C//DTD SVG 1.1//EN" "http://www.w3.org/Graphics/SVG/1.1/DTD/svg11.dtd">
<svg width="100%" height="100%" viewBox="0 0 150 150" version="1.1" xmlns="http://www.w3.org/2000/svg" xmlns:xlink="http://www.w3.org/1999/xlink" xml:space="preserve" xmlns:serif="http://www.serif.com/" style="fill-rule:evenodd;clip-rule:evenodd;stroke-linejoin:round;stroke-miterlimit:2;">
    <g transform="matrix(1,0,0,1,0,-11.538)">
        <g transform="matrix(1,0,0,1,0,3.39254)">
            <circle cx="74.584" cy="82.729" r="74.584" style="fill:rgb(88,88,88);"/>
        </g>
        <g transform="matrix(0.789582,0,0,0.789582,20.6905,10.3348)">
            <path d="M20.493,42.293L109.565,42.293C114.621,44.11 117.831,59.176 115.165,59.274L81.184,59.274C80.113,59.226 79.087,59.286 79.084,60.838L79.084,68.15C78.915,69.397 79.678,70.076 80.533,70.469C106.092,80.018 122.626,89.673 128.184,103.222C129.433,107.155 129.093,112.486 126.926,115.45C116.39,129.862 99.68,131.086 82.584,123.022C80.384,122.878 79.065,123.916 79.084,125.991L79.084,166.422C72.431,166.081 62.776,155.202 62.545,151.022L62.545,136.022C62.494,134.694 61.829,133.926 60.583,133.622C40.6,131.987 17.582,114.952 7.969,93.719C7.535,92.94 7.432,92.109 7.969,91.057C18.594,80.413 40.542,74.359 61.524,67.914C62.237,67.602 62.515,67.135 62.545,66.481L62.545,60.838C62.343,59.879 62.117,59.167 61.115,59.274L27.978,59.274C24.31,57.478 17.894,42.349 20.493,42.293ZM62.545,88.971L62.545,112.367C62.41,113.279 61.702,114.055 60.847,115.4C57.837,120.137 28.709,122.335 25.704,105.971C24.487,99.343 60.561,86.122 60.561,86.122C62.038,86.581 62.562,87.658 62.545,88.971ZM79.084,86.122L79.084,109.75C79.129,110.94 79.587,111.966 81.116,112.563C87.976,115.243 110.98,110.804 111.716,97.632C112.434,84.778 82.209,83.188 82.209,83.188C79.834,82.999 79.088,84.236 79.084,86.122Z" style="fill:white;"/>
        </g>
    </g>
</svg>
